<svg id="a753132a-62f9-4076-962a-8f9e494d8811" data-name="Camada 1" xmlns="http://www.w3.org/2000/svg" viewBox="0 0 160 148.28"><title>logo</title><path d="M668.44,268c.73-3.38,1.45-6.75,2.16-10.07-6.29,1.05-14.36,9.13-16.88,17.27-1,3.2-1.56,6.54-2.32,9.82-2.39,10.41-10.09,15.57-19.3,19.41,7.88-7.87,10-18,12.08-28.25,3.89-18.87,18.23-31.55,37.67-31.75,34.9-.35,61,15.58,78,45.76,8.33,14.79,13.44,30.83,11.86,48.32-2.6,28.73-30.37,54.81-57.83,54.18a32.13,32.13,0,0,1-17.86-6.12c-1.93-1.32-4.75-1.46-7.22-1.86-1.1-.18-2.31.38-3.47.53-12.35,1.56-18.8-3.43-20.45-15.79-.13-1-.33-1.92-.28-1.64-6.85-1-13-1.85-19.2-2.89a8,8,0,0,1-3.6-1.76c-5.29-4.47-10-9.32-17.62-10.59-2.42-.4-4.15-6.2-5.8-9.71a85.25,85.25,0,0,1-3.52-9.68c-1-3.16-2.54-6.31-2.81-9.55-.6-7.27,3.4-11.81,10.64-11.62a50.27,50.27,0,0,1,15.7,2.7c6.61,2.41,8.14,8.48,4.17,14.42-2.6,3.89-5.82,7.36-9.06,11.39,4.15,6.79,18.7,11.92,31.37,9.74,16.69-2.87,26.69-13.41,31.19-32.23,1.24,3.69,2.47,7.38,4,12,11.17-18.47,16.24-37.63,13.78-59.69a33.57,33.57,0,0,1,7.21,19.2c1.19,16.74-3,32.31-10.61,47.14a160.2,160.2,0,0,0-8.94,19.68c-2.37,6.74-.54,11.66,3.89,14.35,4.9,3,10,2.46,15.23-2.3,11.26-10.22,16.33-23.73,18.86-38.21,1.27-7.24,1.26-14.7,1.88-22.75,5.8,22.33,6.19,43.44-7.46,64.22a45,45,0,0,0,4.43-1.87c16.07-9.49,23.68-25.77,20.17-45.85-4.34-24.84-17-44.82-38.08-58.93-10.16-6.78-21.44-9.57-33.68-6.87C679.51,259.71,677.4,261,668.44,268Z" transform="translate(-612.04 -244.43)"/><path d="M660.57,303.66c1.78-10.42,9.43-18,18.1-19,7.34-.84,11.75,1.19,14.1,6.46-4,1.54-8,3.18-12.14,4.59-1.88.64-4.1,1.58-5.83,1.13C668.58,295.2,664.25,297.52,660.57,303.66Z" transform="translate(-612.04 -244.43)"/></svg>